<svg id="Слой_1" data-name="Слой 1" xmlns="http://www.w3.org/2000/svg" viewBox="0 0 1925 279.14"><defs><style>.cls-1{fill:#424245;}</style></defs><path class="cls-1" d="M1925,191c-42.47,11.38-108.4,27.68-190,42-111.32,19.54-206.25,27.39-504,37-175.92,5.68-263.88,8.51-350,9-262.82,1.48-458.76-9.29-506-12-100.58-5.76-227.74-15.1-375-31V178a3093.85,3093.85,0,0,1,331-23c167.58-2.67,208.22,10.31,355.73,14.67,212.16,6.27,377.67-15.23,414.27-19.12,53.07-5.64,115-13.54,203.84-24.87,98.91-12.62,178.9-23.63,208.16-27.68,95.83-13.27,205-29.13,205-29.13,23.34-3.48,51.75-7.78,84.21-12.81,20.61-3.19,26.53-3.48,34.82-5.43,21.7-5.1,52.14-17.45,86-50.63Q1924,95.51,1925,191Z"/></svg>